<svg version="1.0" xmlns="http://www.w3.org/2000/svg"
 width="164.000000pt" height="66.000000pt" viewBox="0 0 164.000000 66.000000"
 preserveAspectRatio="xMidYMid meet">
<metadata>
Created by potrace 1.10, written by Peter Selinger 2001-2011
</metadata>
<g transform="translate(0.000000,66.000000) scale(0.100000,-0.100000)"
fill="#000000" stroke="none">
<path d="M62 634 c-36 -25 -29 -63 23 -114 51 -50 57 -76 20 -90 -31 -12 -49
-5 -63 23 -10 21 -11 21 -11 -6 -1 -46 57 -57 102 -19 31 27 21 70 -29 124
-37 40 -43 52 -34 63 18 22 51 18 57 -5 6 -24 23 -17 23 10 0 32 -51 40 -88
14z"/>
<path d="M206 548 c-21 -57 -44 -113 -52 -125 -14 -22 -13 -23 15 -23 23 0 29
4 25 15 -3 8 -1 29 5 47 9 29 15 33 43 32 27 -1 35 -7 46 -34 7 -18 11 -38 9
-44 -3 -8 8 -12 30 -13 31 -1 33 0 20 15 -8 10 -35 66 -59 125 l-45 108 -37
-103z m52 -5 c10 -31 10 -33 -14 -33 -27 0 -29 6 -14 46 12 31 13 30 28 -13z"/>
<path d="M416 614 c-3 -22 -8 -66 -12 -99 -4 -33 -10 -70 -15 -82 -8 -21 -6
-23 23 -23 24 0 29 3 21 11 -12 12 -7 107 6 121 3 4 22 -24 41 -62 18 -39 37
-70 40 -70 3 0 22 32 41 71 l34 71 13 -43 c7 -24 11 -58 8 -75 -4 -28 -2 -31
24 -31 23 0 27 3 21 16 -7 13 -40 190 -41 217 0 5 -24 -34 -52 -86 l-52 -95
-47 99 -47 98 -6 -38z"/>
<path d="M688 526 c32 -69 60 -122 63 -118 3 4 17 33 30 66 l24 59 31 -68 32
-68 21 48 c11 26 21 49 21 51 0 2 16 36 35 75 19 40 35 74 35 76 0 1 -14 3
-31 3 -25 0 -30 -3 -25 -17 6 -14 -36 -134 -54 -156 -4 -5 -18 18 -30 50 -13
32 -26 61 -30 66 -3 4 -17 -19 -30 -50 -12 -32 -26 -62 -30 -66 -4 -4 -21 27
-38 69 -24 58 -29 80 -21 91 9 10 5 13 -24 13 l-35 0 56 -124z"/>
<path d="M1060 639 c-36 -3 -59 -6 -52 -7 17 -3 17 -203 0 -220 -9 -9 3 -12
54 -12 62 0 66 1 71 25 4 24 3 25 -13 10 -10 -9 -29 -15 -42 -13 -20 3 -23 9
-26 51 -3 44 -1 47 20 47 13 0 29 -5 35 -11 7 -7 12 -3 15 14 5 23 3 24 -34
20 l-38 -6 0 45 c0 44 1 45 28 40 15 -3 30 -10 34 -16 7 -11 23 17 16 31 -1 4
-32 5 -68 2z"/>
<path d="M1158 638 c15 -15 17 -209 3 -223 -6 -6 13 -11 52 -12 61 -2 77 5 77
36 0 11 -5 10 -20 -4 -13 -12 -27 -15 -45 -11 -25 6 -25 8 -25 104 0 63 4 102
12 110 9 9 3 12 -27 12 -30 0 -36 -3 -27 -12z"/>
<path d="M1308 638 c15 -15 16 -210 1 -225 -7 -7 9 -10 58 -9 65 1 68 2 72 26
3 24 3 25 -17 7 -11 -10 -31 -17 -44 -15 -22 3 -23 7 -26 102 -2 64 1 103 9
112 9 12 5 14 -27 14 -30 0 -35 -3 -26 -12z"/>
<path d="M1510 630 c-11 -11 -20 -24 -20 -30 0 -5 -7 -10 -15 -10 -8 0 -15 -6
-15 -12 0 -7 -3 -23 -6 -35 -9 -33 11 -28 26 6 l12 29 49 -55 c28 -30 48 -60
46 -66 -2 -7 -16 -19 -31 -27 -26 -14 -28 -14 -47 9 l-19 23 0 -26 c0 -62 112
-32 118 32 3 28 -3 39 -43 76 -38 34 -46 47 -40 64 9 30 51 30 61 0 l8 -23 6
25 c4 14 2 28 -4 32 -21 14 -66 8 -86 -12z"/>
<path d="M20 373 c19 -13 20 -26 20 -173 0 -141 -2 -160 -18 -169 -12 -8 11
-10 86 -11 94 0 102 2 102 19 0 11 3 28 7 38 4 12 -2 9 -20 -10 -29 -30 -62
-35 -95 -11 -21 14 -22 22 -22 158 0 134 1 144 21 157 19 13 15 14 -40 15 -55
1 -59 -1 -41 -13z"/>
<path d="M234 371 c23 -26 23 -312 0 -335 -14 -15 -11 -16 36 -16 51 0 51 0
36 22 -22 31 -23 288 -2 321 15 22 14 22 -35 24 -47 1 -49 0 -35 -16z"/>
<path d="M345 370 c12 -13 15 -46 15 -165 0 -127 -2 -151 -17 -168 -18 -19
-17 -19 69 -16 75 4 90 7 112 28 34 32 35 85 3 132 -22 33 -22 34 -5 68 10 20
18 46 18 59 0 32 -43 72 -77 72 -15 1 -52 2 -81 4 -49 3 -52 2 -37 -14z m150
-33 c35 -49 2 -107 -59 -107 l-35 0 6 58 c2 31 6 62 8 68 5 18 64 4 80 -19z
m11 -162 c33 -50 -10 -135 -68 -135 -27 0 -28 1 -28 58 0 31 -3 67 -6 80 -6
20 -3 22 40 22 38 0 48 -4 62 -25z"/>
<path d="M550 379 c0 -4 7 -12 15 -19 22 -18 22 -286 -1 -318 -15 -22 -15 -22
37 -22 50 0 51 1 36 18 -12 13 -17 37 -17 81 0 60 1 62 23 56 39 -12 65 -33
96 -78 40 -59 70 -77 128 -77 40 0 44 2 30 13 -16 11 -16 15 1 67 l19 55 49 3
49 3 22 -57 c21 -54 21 -58 5 -70 -14 -11 -1 -13 86 -14 94 0 102 1 88 16 -11
11 -16 35 -16 80 0 35 2 64 5 64 28 0 78 -37 109 -79 55 -74 68 -81 158 -81
l78 0 -20 20 c-16 16 -20 33 -20 86 0 61 3 70 52 147 28 45 58 89 65 98 12 15
8 16 -42 15 -45 0 -53 -3 -41 -12 22 -16 20 -26 -17 -89 l-34 -55 -35 59 c-30
51 -34 63 -23 78 12 17 9 18 -35 18 l-47 0 50 -80 c27 -44 53 -84 58 -89 5 -6
9 -45 9 -88 0 -62 -3 -80 -16 -85 -22 -8 -61 24 -112 90 l-42 56 25 37 c66 98
3 168 -139 155 -52 -5 -57 -8 -43 -20 14 -11 17 -35 17 -155 0 -144 -9 -186
-37 -168 -12 8 -143 312 -143 332 0 36 -22 -11 -74 -153 -33 -89 -61 -164 -63
-166 -5 -7 -45 33 -84 86 l-39 52 25 37 c40 59 33 114 -18 140 -29 16 -177 26
-177 13z m161 -53 c10 -17 19 -41 19 -54 0 -33 -43 -72 -80 -72 l-30 0 0 78
c0 43 2 81 5 84 3 2 19 3 36 0 21 -3 37 -14 50 -36z m582 -6 c30 -60 -2 -120
-64 -120 l-29 0 0 78 c0 43 2 81 5 84 3 3 20 2 38 -1 23 -5 37 -16 50 -41z
m-310 -62 c8 -24 18 -51 22 -60 6 -16 1 -18 -37 -18 l-45 0 21 60 c12 33 22
60 23 60 0 0 8 -19 16 -42z"/>
</g>
</svg>
